# xmcd
#
# Track frame offsets: 
#        150
#        14609
#        37384
#        59733
#        75863
#        91386
#        124563
#        145736
#        158541
#        178460
#        202459
#        223286
#        246295
#        275859
#        292288
#
# Disc length: 4134 seconds
#
# Revision: 0
# Processed by: cddbd v1.5.2PL0 Copyright (c) Steve Scherf et al.
# Submitted via: ExactAudioCopy v0.99pb5
#
DISCID=fa10240f
DTITLE=Papadon Washington - Looking At You
DYEAR=2010
DGENRE=Blues
TTITLE0=Waiting For Big Papa To Come Home
TTITLE1=A Wild Wild Woman
TTITLE2=Shake It
TTITLE3=Right On Time
TTITLE4=Washington's In Town 
TTITLE5=I Peeped Through My Window
TTITLE6=Looking At You
TTITLE7=Boogie For My Baby
TTITLE8=Seven Year Itch
TTITLE9=In My Home
TTITLE10=Soul Food
TTITLE11=I'm Tired Of Trying
TTITLE12=What More
TTITLE13=We Made It To The White House
TTITLE14=I'll Fly Away
EXTD=
EXTT0=
EXTT1=
EXTT2=
EXTT3=
EXTT4=
EXTT5=
EXTT6=
EXTT7=
EXTT8=
EXTT9=
EXTT10=
EXTT11=
EXTT12=
EXTT13=
EXTT14=
PLAYORDER=
